<svg xmlns="http://www.w3.org/2000/svg" viewBox="0 0 64 64">
  <defs>
    <linearGradient id="bg" x1="0" y1="0" x2="1" y2="1">
      <stop offset="0%" stop-color="#0f172a" />
      <stop offset="100%" stop-color="#1d4ed8" />
    </linearGradient>
    <linearGradient id="ink" x1="0" y1="0" x2="1" y2="1">
      <stop offset="0%" stop-color="#f8fafc" />
      <stop offset="100%" stop-color="#bfdbfe" />
    </linearGradient>
  </defs>
  <rect x="4" y="4" width="56" height="56" rx="14" fill="url(#bg)" />
  <path d="M20 20c0-3 2-5 5-5h14c3 0 5 2 5 5v1h-6v-1H26v6h10c4 0 7 3 7 7v1c0 3-2 5-5 5H24c-3 0-5-2-5-5v-1h6v1h12v-6H27c-4 0-7-3-7-7v-1z" fill="url(#ink)"/>
  <path d="M36 15h8l-9 11 10 13h-8l-7-9-3 3v6h-6V15h6v10z" fill="#93c5fd"/>
  <rect x="4" y="4" width="56" height="56" rx="14" fill="none" stroke="rgba(255,255,255,0.18)" />
</svg>
